<svg width="40" height="40" viewBox="0 0 40 28" fill="none" xmlns="http://www.w3.org/2000/svg">
<path d="M3.23472 1.98145C4.2983 2.01203 5.14668 2.38807 5.77758 3.1832C7.93986 5.91066 10.0931 8.64605 12.2486 11.3792C15.0055 14.8746 17.7568 18.3756 20.5205 21.8654C21.3904 22.9641 21.626 24.1522 21.0348 25.4322C20.0131 27.642 17.0602 27.9467 15.5288 26.0189C14.6612 24.9259 13.8003 23.826 12.9361 22.7296C8.88225 17.5896 4.82953 12.4473 0.775672 7.30837C-0.804414 5.30469 0.227456 2.50247 2.72614 2.03015C2.90964 1.99504 3.10106 1.9939 3.23472 1.98145Z" fill="#0A2540"/>
<path d="M12.2969 5.25342C12.2912 3.8625 13.1634 2.6211 14.4603 2.17483C15.8093 1.71044 17.2626 2.14312 18.1279 3.28937C20.9528 7.03057 23.7709 10.7752 26.5924 14.5186C27.075 15.1586 27.5609 15.7963 28.0389 16.4396C29.1364 17.9155 28.8533 19.9373 27.4012 21.019C25.9593 22.0928 23.9533 21.7915 22.8501 20.3281C19.5619 15.9673 16.2771 11.6054 12.989 7.24577C12.5427 6.65339 12.2992 5.99644 12.2969 5.25342Z" fill="#0A2540"/>
<path d="M38.4756 7.57838C38.4779 11.0375 35.6665 13.8703 32.2289 13.8737C28.7164 13.8771 25.904 11.0761 25.9063 7.57612C25.9085 4.09997 28.7187 1.27963 32.1768 1.28076C35.662 1.28189 38.4733 4.09317 38.4756 7.57838Z" fill="#1A4C7F"/>
<path d="M20.0639 26.654C18.639 27.7708 16.5786 27.5216 15.4618 26.0978L0.69849 7.27291C-0.418331 5.84802 -0.169142 3.7877 1.25463 2.67089L3.83374 0.647949L20.62 22.0519C21.738 23.4757 21.4888 25.536 20.0639 26.654Z" fill="#0A2540"/>
<path d="M27.3207 21.0712C25.8731 22.1574 23.8184 21.8652 22.7311 20.4176L12.9141 7.33874C11.8279 5.89119 12.1201 3.83654 13.5677 2.74918L16.1887 0.781738L27.9731 16.4816C29.0605 17.9292 28.7682 19.9838 27.3207 21.0712Z" fill="#0A2540"/>
</svg>