<svg width="167" height="28" viewBox="0 0 167 28" fill="none" xmlns="http://www.w3.org/2000/svg">
<path d="M3.23472 1.98145C4.2983 2.01203 5.14668 2.38807 5.77758 3.1832C7.93986 5.91066 10.0931 8.64605 12.2486 11.3792C15.0055 14.8746 17.7568 18.3756 20.5205 21.8654C21.3904 22.9641 21.626 24.1522 21.0348 25.4322C20.0131 27.642 17.0602 27.9467 15.5288 26.0189C14.6612 24.9259 13.8003 23.826 12.9361 22.7296C8.88225 17.5896 4.82953 12.4473 0.775672 7.30837C-0.804414 5.30469 0.227456 2.50247 2.72614 2.03015C2.90964 1.99504 3.10106 1.9939 3.23472 1.98145Z" fill="#0A2540"/>
<path d="M12.2969 5.25342C12.2912 3.8625 13.1634 2.6211 14.4603 2.17483C15.8093 1.71044 17.2626 2.14312 18.1279 3.28937C20.9528 7.03057 23.7709 10.7752 26.5924 14.5186C27.075 15.1586 27.5609 15.7963 28.0389 16.4396C29.1364 17.9155 28.8533 19.9373 27.4012 21.019C25.9593 22.0928 23.9533 21.7915 22.8501 20.3281C19.5619 15.9673 16.2771 11.6054 12.989 7.24577C12.5427 6.65339 12.2992 5.99644 12.2969 5.25342Z" fill="#0A2540"/>
<path d="M38.4756 7.57838C38.4779 11.0375 35.6665 13.8703 32.2289 13.8737C28.7164 13.8771 25.904 11.0761 25.9063 7.57612C25.9085 4.09997 28.7187 1.27963 32.1768 1.28076C35.662 1.28189 38.4733 4.09317 38.4756 7.57838Z" fill="#1A4C7F"/>
<path d="M20.0639 26.654C18.639 27.7708 16.5786 27.5216 15.4618 26.0978L0.69849 7.27291C-0.418331 5.84802 -0.169142 3.7877 1.25463 2.67089L3.83374 0.647949L20.62 22.0519C21.738 23.4757 21.4888 25.536 20.0639 26.654Z" fill="#0A2540"/>
<path d="M27.3207 21.0712C25.8731 22.1574 23.8184 21.8652 22.7311 20.4176L12.9141 7.33874C11.8279 5.89119 12.1201 3.83654 13.5677 2.74918L16.1887 0.781738L27.9731 16.4816C29.0605 17.9292 28.7682 19.9838 27.3207 21.0712Z" fill="#0A2540"/>
<path d="M53.5304 23.5L46.7704 4.13H50.6184L55.9224 20.172H55.1684L60.4724 4.13H64.3204L57.5864 23.5H53.5304ZM71.6124 23.812C70.1564 23.812 68.8824 23.4827 67.7904 22.824C66.6984 22.1653 65.849 21.2727 65.2424 20.146C64.6357 19.0193 64.3324 17.7713 64.3324 16.402C64.3324 14.9807 64.6357 13.724 65.2424 12.632C65.8664 11.5227 66.707 10.6473 67.7644 10.006C68.839 9.36467 70.035 9.044 71.3524 9.044C72.4617 9.044 73.4324 9.226 74.2644 9.59C75.1137 9.954 75.833 10.4567 76.4224 11.098C77.0117 11.7393 77.4624 12.476 77.7744 13.308C78.0864 14.1227 78.2424 15.0067 78.2424 15.96C78.2424 16.2027 78.225 16.454 78.1904 16.714C78.173 16.974 78.1297 17.1993 78.0604 17.39H67.1404V14.79H76.1364L74.5244 16.012C74.6804 15.2147 74.637 14.504 74.3944 13.88C74.169 13.256 73.7877 12.762 73.2504 12.398C72.7304 12.034 72.0977 11.852 71.3524 11.852C70.6417 11.852 70.009 12.034 69.4544 12.398C68.8997 12.7447 68.475 13.2647 68.1804 13.958C67.903 14.634 67.799 15.4573 67.8684 16.428C67.799 17.2947 67.9117 18.066 68.2064 18.742C68.5184 19.4007 68.969 19.912 69.5584 20.276C70.165 20.64 70.8584 20.822 71.6384 20.822C72.4184 20.822 73.077 20.6573 73.6144 20.328C74.169 19.9987 74.6024 19.5567 74.9144 19.002L77.6704 20.354C77.393 21.03 76.9597 21.628 76.3704 22.148C75.781 22.668 75.079 23.0753 74.2644 23.37C73.467 23.6647 72.583 23.812 71.6124 23.812ZM80.8243 23.5V9.356H84.0223V12.138L83.7623 11.644C84.0916 10.7947 84.6289 10.1533 85.3743 9.72C86.1369 9.26933 87.0209 9.044 88.0263 9.044C89.0663 9.044 89.9849 9.26933 90.7823 9.72C91.5969 10.1707 92.2296 10.8033 92.6803 11.618C93.1309 12.4153 93.3563 13.3427 93.3563 14.4V23.5H89.9503V15.206C89.9503 14.582 89.8289 14.0447 89.5863 13.594C89.3436 13.1433 89.0056 12.7967 88.5723 12.554C88.1563 12.294 87.6623 12.164 87.0903 12.164C86.5356 12.164 86.0416 12.294 85.6083 12.554C85.1749 12.7967 84.8369 13.1433 84.5943 13.594C84.3516 14.0447 84.2303 14.582 84.2303 15.206V23.5H80.8243ZM96.5224 23.5V4.13H100.058V12.58H108.3V4.13H111.862V23.5H108.3V15.7H100.058V23.5H96.5224ZM119.595 23.812C118.607 23.812 117.749 23.6473 117.021 23.318C116.293 22.9887 115.729 22.5207 115.331 21.914C114.932 21.29 114.733 20.5707 114.733 19.756C114.733 18.976 114.906 18.2827 115.253 17.676C115.599 17.052 116.137 16.532 116.865 16.116C117.593 15.7 118.511 15.4053 119.621 15.232L124.249 14.478V17.078L120.271 17.754C119.595 17.8753 119.092 18.092 118.763 18.404C118.433 18.716 118.269 19.1233 118.269 19.626C118.269 20.1113 118.451 20.5013 118.815 20.796C119.196 21.0733 119.664 21.212 120.219 21.212C120.929 21.212 121.553 21.0647 122.091 20.77C122.645 20.458 123.07 20.0333 123.365 19.496C123.677 18.9587 123.833 18.3693 123.833 17.728V14.088C123.833 13.4813 123.59 12.9787 123.105 12.58C122.637 12.164 122.013 11.956 121.233 11.956C120.505 11.956 119.855 12.1553 119.283 12.554C118.728 12.9353 118.321 13.4467 118.061 14.088L115.279 12.736C115.556 11.9907 115.989 11.3493 116.579 10.812C117.185 10.2573 117.896 9.824 118.711 9.512C119.525 9.2 120.409 9.044 121.363 9.044C122.524 9.044 123.547 9.26067 124.431 9.694C125.315 10.11 125.999 10.6993 126.485 11.462C126.987 12.2073 127.239 13.0827 127.239 14.088V23.5H124.015V21.082L124.743 21.03C124.379 21.6367 123.945 22.148 123.443 22.564C122.94 22.9627 122.368 23.2747 121.727 23.5C121.085 23.708 120.375 23.812 119.595 23.812ZM133.949 23.5L129.087 9.356H132.675L136.237 20.094L134.989 20.068L138.785 9.356H141.801L145.571 20.068L144.323 20.094L147.885 9.356H151.473L146.611 23.5H143.569L139.721 12.294H140.865L136.965 23.5H133.949ZM153.34 23.5V3.818H156.746V16.714L155.446 16.324L162.102 9.356H166.34L161.114 15.05L166.444 23.5H162.544L157.916 16.168L159.944 15.752L155.68 20.328L156.746 18.248V23.5H153.34Z" fill="#0A2540"/>
</svg>
